<?xml version="1.0" standalone="no"?><!DOCTYPE svg PUBLIC "-//W3C//DTD SVG 1.1//EN" "http://www.w3.org/Graphics/SVG/1.1/DTD/svg11.dtd"><svg t="1628169893911" class="icon" viewBox="0 0 1024 1024" version="1.1" xmlns="http://www.w3.org/2000/svg" p-id="6926" width="64" height="64" xmlns:xlink="http://www.w3.org/1999/xlink"><defs><style type="text/css"></style></defs><path d="M963.791 343.237c-29.379 0-53.205 23.824-53.205 53.205 0 29.382 23.825 53.207 53.205 53.207 29.382 0 53.209-23.825 53.209-53.207-0.001-29.381-23.827-53.205-53.209-53.205zM736.455 897.286l87.065 24.184-24.185-91.904zM210.508 256.274l50.117-115.124-131.145 15.503zM171.5 850.926l68.783-38.647-71.568-41.996z" fill="#D9EDFF" p-id="6927"></path><path d="M896.074 698.97c-32.008 0-58.044-26.037-58.044-58.044s26.036-58.044 58.044-58.044c32.007 0 58.044 26.037 58.044 58.044s-26.037 58.044-58.044 58.044z m0-106.414c-26.667 0-48.369 21.7-48.369 48.371 0 26.668 21.701 48.37 48.369 48.37 26.669 0 48.371-21.701 48.371-48.37 0-26.671-21.702-48.371-48.371-48.371zM196.564 393.291c-10.763 0-19.518-8.755-19.518-19.516 0-10.762 8.755-19.518 19.518-19.518 10.762 0 19.516 8.756 19.516 19.518 0.001 10.761-8.754 19.516-19.516 19.516z m0-35.782c-8.969 0-16.265 7.298-16.265 16.266 0 8.967 7.296 16.264 16.265 16.264 8.967 0 16.264-7.297 16.264-16.264 0.001-8.97-7.297-16.266-16.264-16.266z" fill="#A8D4FF" p-id="6928"></path><path d="M39.24 513.744c-18.696 0-33.858 15.151-33.858 33.857 0 18.705 15.164 33.859 33.858 33.859s33.86-15.152 33.86-33.858c-0.002-18.706-15.165-33.858-33.86-33.858z" fill="#B3D9FF" p-id="6929"></path><path d="M547.812 142.717c-18.693 0-33.858 15.154-33.858 33.859 0 18.706 15.165 33.859 33.858 33.859 18.698 0 33.859-15.153 33.859-33.859 0-18.705-15.161-33.859-33.859-33.859z" fill="#D9EDFF" p-id="6930"></path><path d="M472.36 673.467h214.655a69.049 69.049 0 0 0 48.841-20.238 69.027 69.027 0 0 0 20.238-48.842V405.446a69.063 69.063 0 0 0-20.238-48.85 69.083 69.083 0 0 0-48.841-20.24H543.866a69.06 69.06 0 0 1-44.725-16.428l-5.827-4.981a94.98 94.98 0 0 0-61.552-22.459H350.5c-38.136-0.103-69.136 30.692-69.284 68.829v164.989a152.736 152.736 0 0 1 38.963-5.021c84.049 0 152.181 68.141 152.181 152.182z m99.337-164.885a4.668 4.668 0 0 0 3.075-3.456 4.678 4.678 0 0 0-1.439-4.405c-17.88-16.428-23.854-42.159-15.036-64.786 8.827-22.637 30.627-37.542 54.917-37.542 24.291 0 46.091 14.905 54.911 37.542 8.817 22.627 2.851 48.358-15.037 64.786a4.66 4.66 0 0 0-1.458 4.387 4.646 4.646 0 0 0 3.028 3.475 83.518 83.518 0 0 1 38.184 24.682 70.236 70.236 0 0 1 11.588 18.928 45.564 45.564 0 0 1 3.604 16.179 22.254 22.254 0 0 1-14.997 18.788 104.186 104.186 0 0 1-25.472 7.211 344.781 344.781 0 0 1-108.572 0 103.739 103.739 0 0 1-25.535-7.211 22.247 22.247 0 0 1-14.997-18.994 59.533 59.533 0 0 1 15.388-34.9 81.935 81.935 0 0 1 37.848-24.684z" fill="#1082FF" opacity=".4" p-id="6931"></path><path d="M618.975 529.006a4.831 4.831 0 0 1 0.588-3.984l1.969-3.021a4.85 4.85 0 0 0 0.781-2.883v-0.389a4.85 4.85 0 0 0-4.646-4.581h-9.107c-2.497 0.103-4.517 2.091-4.646 4.581v0.389a4.8 4.8 0 0 0 0.791 2.883l2.024 3.085a4.843 4.843 0 0 1 0.66 3.864l-9.432 36.539a4.824 4.824 0 0 0 1.895 5.167l11.264 7.796a4.84 4.84 0 0 0 5.5 0l11.133-7.723a4.864 4.864 0 0 0 1.895-5.315l-10.669-36.408z" fill="#1082FF" opacity=".4" p-id="6932"></path><path d="M349.97 673.467h122.39c0-84.041-68.132-152.182-152.181-152.182a152.697 152.697 0 0 0-38.963 5.021c-0.107 0.029-0.217 0.052-0.325 0.081v77.927a69.053 69.053 0 0 0 20.211 48.896 69.055 69.055 0 0 0 48.868 20.257z" fill="#459CFC" opacity=".4" p-id="6933"></path><path d="M519.937 740.074h214.655a69.041 69.041 0 0 0 48.842-20.239 69.029 69.029 0 0 0 20.238-48.839V472.055a69.07 69.07 0 0 0-20.238-48.851 69.086 69.086 0 0 0-48.842-20.239h-143.15a69.07 69.07 0 0 1-44.725-16.429l-5.826-4.981a94.98 94.98 0 0 0-61.553-22.459h-81.262c-38.135-0.103-69.135 30.692-69.284 68.829V593.07a152.235 152.235 0 0 1 131.711 26.512 152.232 152.232 0 0 1 59.434 120.492z m61.489-140.203a81.972 81.972 0 0 1 37.847-24.681 4.662 4.662 0 0 0 3.076-3.457 4.669 4.669 0 0 0-1.439-4.404c-17.878-16.429-23.854-42.16-15.036-64.787 8.828-22.635 30.628-37.54 54.919-37.54 24.29 0 46.091 14.905 54.91 37.54 8.817 22.627 2.852 48.358-15.036 64.787a4.658 4.658 0 0 0-1.459 4.385 4.643 4.643 0 0 0 3.028 3.477 83.516 83.516 0 0 1 38.182 24.681 70.16 70.16 0 0 1 11.589 18.93 45.485 45.485 0 0 1 3.605 16.176 22.256 22.256 0 0 1-14.999 18.791 104.24 104.24 0 0 1-25.471 7.21 344.834 344.834 0 0 1-108.571 0 103.943 103.943 0 0 1-25.535-7.21 22.25 22.25 0 0 1-14.998-18.994 59.544 59.544 0 0 1 15.388-34.904z" fill="#1082FF" p-id="6934"></path><path d="M645.535 632.098a4.815 4.815 0 0 0 1.895 5.165l11.262 7.797a4.84 4.84 0 0 0 5.502 0l11.133-7.722a4.864 4.864 0 0 0 1.895-5.315l-10.668-36.407a4.83 4.83 0 0 1 0.585-3.987l1.972-3.02a4.86 4.86 0 0 0 0.781-2.881v-0.392a4.85 4.85 0 0 0-4.648-4.58h-9.105a4.848 4.848 0 0 0-4.646 4.58v0.392a4.794 4.794 0 0 0 0.789 2.881l2.025 3.085a4.849 4.849 0 0 1 0.66 3.865l-9.432 36.539zM519.937 740.074c0-84.04-68.131-152.182-152.18-152.182a152.872 152.872 0 0 0-39.289 5.101v77.928a69.05 69.05 0 0 0 20.211 48.896 69.051 69.051 0 0 0 48.868 20.258h122.39z" fill="#1082FF" p-id="6935"></path><path d="M519.937 740.074c0-84.04-68.131-152.182-152.18-152.182a152.872 152.872 0 0 0-39.289 5.101v77.928a69.05 69.05 0 0 0 20.211 48.896 69.051 69.051 0 0 0 48.868 20.258h122.39z" fill="#459CFC" p-id="6936"></path></svg>