<?xml version="1.0" standalone="no"?>
<!DOCTYPE svg PUBLIC "-//W3C//DTD SVG 20010904//EN"
 "http://www.w3.org/TR/2001/REC-SVG-20010904/DTD/svg10.dtd">
<svg version="1.0" xmlns="http://www.w3.org/2000/svg"
 width="512.000000pt" height="512.000000pt" viewBox="0 0 512.000000 512.000000"
 preserveAspectRatio="xMidYMid meet">
<metadata>
Created by potrace 1.14, written by Peter Selinger 2001-2017
</metadata>
<g transform="translate(0.000000,512.000000) scale(0.100000,-0.100000)"
fill="#000000" stroke="none">
<path d="M3925 5099 c-44 -10 -91 -21 -105 -24 -14 -2 -65 -14 -115 -25 -49
-11 -194 -43 -322 -70 -127 -28 -253 -60 -279 -72 -64 -28 -138 -104 -170
-175 -22 -49 -26 -75 -29 -173 -4 -138 -3 -132 -13 -126 -45 27 -536 28 -673
1 -13 -3 -35 -7 -49 -10 -14 -2 -38 -7 -55 -9 -16 -3 -40 -8 -53 -11 -12 -3
-30 -7 -41 -9 -10 -2 -64 -18 -119 -35 -246 -76 -439 -173 -666 -335 -116 -83
-329 -284 -396 -375 -14 -18 -37 -47 -51 -65 -51 -60 -148 -214 -207 -327 -54
-102 -127 -271 -137 -317 -2 -9 -18 -64 -35 -122 -52 -178 -72 -320 -76 -550
-3 -191 1 -241 31 -440 3 -25 15 -79 26 -120 11 -41 22 -84 24 -94 31 -136
152 -407 250 -561 208 -326 436 -548 768 -749 139 -84 434 -208 547 -230 14
-2 56 -12 93 -21 187 -44 543 -66 707 -44 36 5 81 11 102 13 20 3 47 7 60 10
12 3 37 7 53 10 114 16 336 88 490 159 93 43 319 169 335 187 3 3 49 38 103
79 136 102 299 264 397 396 25 33 47 62 50 65 31 30 220 360 220 385 0 6 6 19
13 30 14 21 68 164 67 178 0 4 6 20 14 36 8 15 17 41 20 57 2 16 5 29 6 29 1
0 3 7 5 15 103 390 95 838 -22 1215 -43 139 -74 216 -139 348 -58 118 -186
324 -231 372 -10 11 -40 47 -66 80 -54 69 -171 185 -270 268 -37 31 -64 57
-60 58 5 0 40 2 78 3 94 4 125 19 155 75 16 31 16 913 0 956 -19 51 -80 87
-139 84 -9 0 -52 -9 -96 -20z m-1256 -2540 c56 -18 137 -76 171 -122 134 -182
74 -431 -128 -533 -51 -26 -67 -29 -152 -29 -81 0 -103 4 -150 26 -218 103
-272 389 -105 562 28 29 64 60 81 70 77 42 199 53 283 26z"/>
</g>
</svg>
