<?xml version="1.0" standalone="no"?><!DOCTYPE svg PUBLIC "-//W3C//DTD SVG 1.1//EN" "http://www.w3.org/Graphics/SVG/1.1/DTD/svg11.dtd"><svg t="1608803936076" class="icon" viewBox="0 0 1024 1024" version="1.1" xmlns="http://www.w3.org/2000/svg" p-id="1957" xmlns:xlink="http://www.w3.org/1999/xlink" width="48" height="48"><defs><style type="text/css"></style></defs><path d="M518.144 944.64c-21.504 0-41.728-9.344-55.68-25.856l-253.44-276.48c-19.2-22.656-23.168-52.48-11.136-78.464a72.192 72.192 0 0 1 66.048-42.24h92.16V267.904c0-38.528 31.36-69.888 69.888-69.888h184.064c38.528 0 69.888 31.36 69.888 69.888v253.824h92.16c28.672 0 54.016 16.128 66.048 42.24 12.032 25.984 8.064 55.808-10.496 77.696L573.184 919.552c-13.312 15.616-33.536 25.088-55.04 25.088zM264.064 572.928c-12.8 0-18.304 9.6-19.712 12.544s-5.12 13.312 3.072 23.04l253.44 276.48c6.272 7.424 13.44 8.448 17.152 8.448 3.712 0 10.88-1.024 16.512-7.68l254.848-278.016c7.552-9.088 3.84-19.328 2.432-22.272s-6.784-12.544-19.712-12.544h-117.76c-14.08 0-25.6-11.52-25.6-25.6V267.904c0-10.368-8.448-18.688-18.688-18.688H426.112c-10.368 0-18.688 8.448-18.688 18.688v279.424c0 14.08-11.52 25.6-25.6 25.6h-117.76z" p-id="1958"></path></svg>