<?xml version="1.0" standalone="no"?><!DOCTYPE svg PUBLIC "-//W3C//DTD SVG 1.1//EN" "http://www.w3.org/Graphics/SVG/1.1/DTD/svg11.dtd"><svg t="1613651871473" class="icon" viewBox="0 0 1024 1024" version="1.1" xmlns="http://www.w3.org/2000/svg" p-id="1277" width="48" height="48" xmlns:xlink="http://www.w3.org/1999/xlink"><defs><style type="text/css"></style></defs><path d="M227.555556 533.333333h-78.222223c-11.757037 0-21.333333-9.576296-21.333333-21.333333s9.576296-21.333333 21.333333-21.333333H227.555556c11.757037 0 21.333333 9.576296 21.333333 21.333333s-9.576296 21.333333-21.333333 21.333333zM512 590.222222c-43.140741 0-78.222222-35.081481-78.222222-78.222222s35.081481-78.222222 78.222222-78.222222 78.222222 35.081481 78.222222 78.222222-35.081481 78.222222-78.222222 78.222222z m0-113.777778c-19.626667 0-35.555556 15.928889-35.555556 35.555556s15.928889 35.555556 35.555556 35.555556 35.555556-15.928889 35.555556-35.555556-15.928889-35.555556-35.555556-35.555556z" p-id="1278" fill="#8a8a8a"></path><path d="M512 817.777778c-11.757037 0-21.333333-9.576296-21.333333-21.333334s9.576296-21.333333 21.333333-21.333333c145.066667 0 263.111111-118.044444 263.111111-263.111111S657.066667 248.888889 512 248.888889 248.888889 366.933333 248.888889 512c0 109.416296 65.896296 205.653333 167.727407 245.285926 10.998519 4.266667 16.402963 16.592593 12.136297 27.591111-4.266667 10.998519-16.592593 16.402963-27.591112 12.136296C344.367407 774.921481 295.822222 736.711111 260.93037 686.554074c-35.745185-51.38963-54.708148-111.786667-54.708148-174.554074 0-81.635556 31.762963-158.435556 89.6-216.177778s134.542222-89.6 216.177778-89.6S670.435556 237.985185 728.177778 295.822222c57.742222 57.742222 89.6 134.542222 89.6 216.177778S786.014815 670.435556 728.177778 728.177778c-57.742222 57.837037-134.542222 89.6-216.177778 89.6z" p-id="1279" fill="#8a8a8a"></path><path d="M512 248.888889c-11.757037 0-21.333333-9.576296-21.333333-21.333333v-78.222223c0-11.757037 9.576296-21.333333 21.333333-21.333333s21.333333 9.576296 21.333333 21.333333V227.555556c0 11.757037-9.576296 21.333333-21.333333 21.333333zM512 896c-11.757037 0-21.333333-9.576296-21.333333-21.333333V796.444444c0-11.757037 9.576296-21.333333 21.333333-21.333333s21.333333 9.576296 21.333333 21.333333v78.222223c0 11.757037-9.576296 21.333333-21.333333 21.333333zM874.666667 533.333333H796.444444c-11.757037 0-21.333333-9.576296-21.333333-21.333333s9.576296-21.333333 21.333333-21.333333h78.222223c11.757037 0 21.333333 9.576296 21.333333 21.333333s-9.576296 21.333333-21.333333 21.333333z" p-id="1280" fill="#8a8a8a"></path></svg>