<?xml version="1.0" standalone="no"?><!DOCTYPE svg PUBLIC "-//W3C//DTD SVG 1.1//EN" "http://www.w3.org/Graphics/SVG/1.1/DTD/svg11.dtd"><svg t="1608810872287" class="icon" viewBox="0 0 1024 1024" version="1.1" xmlns="http://www.w3.org/2000/svg" p-id="2057" xmlns:xlink="http://www.w3.org/1999/xlink" width="48" height="48"><defs><style type="text/css"></style></defs><path d="M117.71654 715.045439l131.100874 0c6.127558 0 11.907191 1.237177 16.254196 5.584182L466.392778 921.377738c10.232039 10.233062 23.663956 15.575744 37.81935 15.575744 29.851888 0 54.149271-24.509207 54.149271-54.239322L558.361399 140.999314c0-29.745465-24.297382-53.952796-54.149271-53.952796-14.155395 0-27.587312 5.629207-37.81935 15.861246L265.085936 305.361733c-4.347005 4.347005-10.126638 7.877411-16.268522 7.877411L117.71654 313.239144c-29.715789 0-53.877071 21.868053-53.877071 51.582819l0 294.052153C63.839469 688.575578 88.000751 715.045439 117.71654 715.045439zM94.746386 364.822986c0-12.661368 10.307763-20.659529 22.969131-20.659529l131.100874 0c14.382569 0 27.919886-6.745634 38.105876-16.932648l201.321168-201.895243c5.630231-5.629207 11.787464-7.093559 15.96767-7.093559 11.42419 0 23.24133 8.315386 23.24133 22.75833l0 741.713822c0 14.428617-11.81714 23.030529-23.24133 23.030529-4.180206 0-10.337439-1.176802-15.96767-6.791683L286.90794 698.746218c-10.187013-10.17064-23.724331-14.607696-38.09155-14.607696L117.71654 684.138522c-12.662391 0-22.969131-12.617365-22.969131-25.263383L94.747409 364.822986zM655.611304 640.010489l128.156822-128.165008L655.611304 383.687636c-6.036483-6.036483-6.036483-15.816221 0-21.852704 6.03546-6.036483 15.815197-6.036483 21.851681 0L805.620829 489.992777l128.156822-128.157845c6.036483-6.036483 15.816221-6.036483 21.852704 0 6.036483 6.036483 6.036483 15.816221 0 21.852704L827.473533 511.845481l128.157845 128.165008c6.036483 6.037507 6.036483 15.817244 0 21.852704-3.01773 3.01773-6.971785 4.527107-10.926864 4.527107-3.953032 0-7.90811-1.509377-10.926864-4.527107L805.620829 533.698185 677.462984 661.863193c-3.01773 3.01773-6.971785 4.527107-10.926864 4.527107-3.953032 0-7.90811-1.509377-10.92584-4.527107C649.573797 655.827733 649.573797 646.047995 655.611304 640.010489z" p-id="2058"></path></svg>