<?xml version="1.0" standalone="no"?><!DOCTYPE svg PUBLIC "-//W3C//DTD SVG 1.1//EN" "http://www.w3.org/Graphics/SVG/1.1/DTD/svg11.dtd"><svg t="1608812608142" class="icon" viewBox="0 0 1024 1024" version="1.1" xmlns="http://www.w3.org/2000/svg" p-id="15125" xmlns:xlink="http://www.w3.org/1999/xlink" width="48" height="48"><defs><style type="text/css"></style></defs><path d="M543.107825 255.51394l-421.592885 0c-17.498151 0-31.721795-14.223643-31.721795-31.721795s14.223643-31.721795 31.721795-31.721795l421.592885 0c17.498151 0 31.721795 14.223643 31.721795 31.721795S560.605976 255.51394 543.107825 255.51394z" p-id="15126"></path><path d="M543.107825 575.494754l-421.592885 0c-17.498151 0-31.721795-14.223643-31.721795-31.721795s14.223643-31.721795 31.721795-31.721795l421.592885 0c17.498151 0 31.721795 14.223643 31.721795 31.721795S560.605976 575.494754 543.107825 575.494754z" p-id="15127"></path><path d="M543.107825 895.066254l-421.592885 0c-17.498151 0-31.721795-14.223643-31.721795-31.721795s14.223643-31.721795 31.721795-31.721795l421.592885 0c17.498151 0 31.721795 14.223643 31.721795 31.721795S560.605976 895.066254 543.107825 895.066254z" p-id="15128"></path><path d="M913.331868 402.252823c-12.381733 12.381733-32.438093 12.381733-44.819826 0L767.309284 301.152393l0 562.396722c0 17.498151-14.223643 31.721795-31.721795 31.721795s-31.721795-14.223643-31.721795-31.721795l0-639.552313c0-17.498151 14.223643-31.721795 31.721795-31.721795 7.776956 0 14.837614 2.762866 20.363346 7.367643 0.818627 0.716299 157.381033 157.790347 157.381033 157.790347C925.7136 369.81473 925.7136 389.87109 913.331868 402.252823z" p-id="15129"></path></svg>