<?xml version="1.0" standalone="no"?><!DOCTYPE svg PUBLIC "-//W3C//DTD SVG 1.1//EN" "http://www.w3.org/Graphics/SVG/1.1/DTD/svg11.dtd"><svg t="1608812728688" class="icon" viewBox="0 0 1024 1024" version="1.1" xmlns="http://www.w3.org/2000/svg" p-id="16120" xmlns:xlink="http://www.w3.org/1999/xlink" width="48" height="48"><defs><style type="text/css"></style></defs><path d="M614.18804 848.20562a99.6 181.7 74.666 1 0 350.463201-96.099453 99.6 181.7 74.666 1 0-350.463201 96.099453Z" fill="#4EEAAB" p-id="16121"></path><path d="M966.7 180.4c0-21.2-17.2-38.4-38.4-38.4s-38.4 17.2-38.4 38.4v516.9c-13.9-2.9-29.2-4.6-45.6-4.6-18.4 0-38 1.9-58.4 6-97.9 19.5-175.6 80.7-173.6 136.8 1.6 44.4 52.6 72.2 122.4 72.2 18.4 0 38-1.9 58.4-6C891 882.2 968.7 821 966.7 764.9c0-0.3-0.1-0.5-0.2-0.8 0-0.6 0.2-1.2 0.2-1.9V180.4zM778 826.3c-15 3-29.6 4.5-43.4 4.5-17.6 0-30.4-2.4-38.7-5.1 14.7-16 50.5-40.9 105-51.7 15-3 29.6-4.5 43.4-4.5 17.6 0 30.4 2.4 38.7 5.1-14.7 16-50.5 40.9-105 51.7zM95.7 218.8H707c21.2 0 38.4-17.2 38.4-38.4S728.3 142 707.1 142H95.7c-21.2 0-38.4 17.2-38.4 38.4s17.2 38.4 38.4 38.4zM582 363.1H95.7c-21.2 0-38.4 17.2-38.4 38.4s17.2 38.4 38.4 38.4H582c21.2 0 38.4-17.2 38.4-38.4 0-21.3-17.2-38.4-38.4-38.4zM456.8 584.1H95.7c-21.2 0-38.4 17.2-38.4 38.4s17.2 38.4 38.4 38.4h361.1c21.2 0 38.4-17.2 38.4-38.4s-17.2-38.4-38.4-38.4zM331.7 805.2h-236c-21.2 0-38.4 17.2-38.4 38.4S74.5 882 95.7 882h236c21.2 0 38.4-17.2 38.4-38.4s-17.2-38.4-38.4-38.4z" fill="#454563" p-id="16122"></path></svg>