<?xml version="1.0" standalone="no"?><!DOCTYPE svg PUBLIC "-//W3C//DTD SVG 1.1//EN" "http://www.w3.org/Graphics/SVG/1.1/DTD/svg11.dtd"><svg t="1608810767626" class="icon" viewBox="0 0 1024 1024" version="1.1" xmlns="http://www.w3.org/2000/svg" p-id="2190" xmlns:xlink="http://www.w3.org/1999/xlink" width="48" height="48"><defs><style type="text/css"></style></defs><path d="M512 504.9m-469.5 0a469.5 469.5 0 1 0 939 0 469.5 469.5 0 1 0-939 0Z" fill="#242424" p-id="2191"></path><path d="M419.9 329.1c22.6 0 41 18.3 41 41v261.7c0 22.6-18.3 41-41 41-22.6 0-41-18.3-41-41V370.1c0-22.6 18.4-41 41-41zM610.9 329.1c22.6 0 41 18.3 41 41v261.7c0 22.6-18.3 41-41 41-22.6 0-41-18.3-41-41V370.1c0-22.6 18.4-41 41-41z" fill="#FFFFFF" p-id="2192"></path></svg>